# xmcd
#
# Track frame offsets: 
#        150
#        14364
#        28307
#        41751
#        55801
#        69334
#        83982
#        98900
#        112731
#        126506
#        141065
#        155496
#        168073
#        180465
#
# Disc length: 2594 seconds
#
# Revision: 0
# Processed by: cddbd v1.5.2PL0 Copyright (c) Steve Scherf et al.
# Submitted via: ExactAudioCopy v0.99pb5
#
DISCID=b40a200e
DTITLE=สุรพล สมบัติเจริญ - SS-07 แผ่นที่ 3 ชุด พี่แก่แล้ว [C.T.R.256]
DYEAR=2009
DGENRE=Country
TTITLE0=พี่แก่แล้ว
TTITLE1=พี่ยังไม่แก่หรอกน้อง
TTITLE2=แก่จะตายอยู่แล้ว (ผ่องศรี วรนุช)
TTITLE3=แก้วลืมดง
TTITLE4=เสน่ห์สาวเวียงพิงค์
TTITLE5=ดรรชนีไฉไล
TTITLE6=ดรรชนีขอลา (ภาวนา ชบาไพร)
TTITLE7=บ้านนี้ฉันรัก
TTITLE8=บ้านนี้ฉันเกลี' (มยุรี ภู่ระหง)
TTITLE9=หนาวนี้พี่ตายแน่
TTITLE10=ตายแน่หรือหนาวนี้ (รุ่งนภา ดารากุล)
TTITLE11=ตา
TTITLE12=ฉันอายตาคุณ (รุ่งนภา ดารากุล)
TTITLE13=กลับเถิดทูนหัว
EXTD=
EXTT0=
EXTT1=
EXTT2=
EXTT3=
EXTT4=
EXTT5=
EXTT6=
EXTT7=
EXTT8=
EXTT9=
EXTT10=
EXTT11=
EXTT12=
EXTT13=
PLAYORDER=
